<?xml version="1.0" encoding="UTF-8" standalone="no"?>
<!-- Created with Inkscape (http://www.inkscape.org/) -->

<svg
 xmlns:svg="http://www.w3.org/2000/svg"
 xmlns="http://www.w3.org/2000/svg"
 version="1.1"
 width="720"
 height="720"
 id="svg2">
<defs
 id="defs4" />
<g
 transform="matrix(1.797024524088973,0,0,1.797024524088973,-347.1746585088307,-135.0675232452408)"
 id="g2952">
<path
 d="m 346.5565742397138,262.8906529516992 93.9375,-162.6875 -93.9375,0 0,162.6875 z"
 id="path2826"
 style="fill:#ff0000;fill-opacity:1;stroke:none" />
<path
 d="m 359.1503242397138,241.0946608298801 162.6960113680005,-93.922757878181 -81.3522613680005,-46.9687499999999 -81.34375,140.8915078781806 z"
 id="path2930"
 style="fill:#ff8000;fill-opacity:1;stroke:none" />
<path
 d="m 380.9548277295336,228.5156529516995 187.8602578781803,0.008511368 -46.9687499999995,-81.3522613680003 -140.8915078781807,81.3437499999997 z"
 id="path2932"
 style="fill:#ffff00;fill-opacity:1;stroke:none" />
<path
 d="m 406.127585607714,228.5241643196998 162.6874999999998,93.9374999999991 0,-93.9374999999994 -162.6874999999994,-2e-13 z"
 id="path2934"
 style="fill:#80ff00;fill-opacity:1;stroke:none" />
<path
 d="m 427.923577729533,241.1179143196993 93.9227578781809,162.6960113679998 46.96875,-81.3522613680002 -140.8915078781801,-81.3437499999999 z"
 id="path2936"
 style="fill:#00ff00;fill-opacity:1;stroke:none" />
<path
 d="m 440.5025856077136,262.9224178095186 -0.008511368,187.8602578781802 81.3522613679996,-46.9687499999997 -81.3437499999993,-140.8915078781804 z"
 id="path2938"
 style="fill:#00ff80;fill-opacity:1;stroke:none" />
<path
 d="m 440.4940742397131,288.0951756876991 -93.937499999999,162.6874999999997 93.9374999999996,0 2e-13,-162.6874999999992 z"
 id="path2940"
 style="fill:#00ffff;fill-opacity:1;stroke:none" />
<path
 d="m 427.9003242397134,309.8911678095179 -162.6960113679996,93.9227578781811 81.3522613680003,46.9687499999997 81.34375,-140.8915078781799 z"
 id="path2942"
 style="fill:#0080ff;fill-opacity:1;stroke:none" />
<path
 d="m 406.0958207498941,322.4701756876988 -187.8602578781801,-0.008511368 46.9687499999998,81.3522613680002 140.8915078781804,-81.3437499999992 z"
 id="path2944"
 style="fill:#0000ff;fill-opacity:1;stroke:none" />
<path
 d="m 380.9230628717136,322.4616643196984 -162.6874999999998,-93.937499999999 2e-13,93.9374999999995 162.6874999999991,5e-13 z"
 id="path2946"
 style="fill:#8000ff;fill-opacity:1;stroke:none" />
<path
 d="m 359.1270707498945,309.8679143196988 -93.9227578781812,-162.6960113679998 -46.9687499999995,81.3522613680004 140.8915078781798,81.34375 z"
 id="path2948"
 style="fill:#ff00ff;fill-opacity:1;stroke:none" />
<path
 d="m 346.5480628717135,288.0634108298792 0.008511368,-187.8602578781803 -81.3522613680002,46.96875 81.3437499999992,140.8915078781804 z"
 id="path2950"
 style="fill:#ff0080;fill-opacity:1;stroke:none" />
</g>
</svg>
